<svg id="svg" xmlns="http://www.w3.org/2000/svg" xmlns:xlink="http://www.w3.org/1999/xlink" viewBox="0, 0, 400,400"><g id="svgg"><path id="path0" d="M55.553 27.165 C -2.456 44.372,-21.319 126.681,22.667 170.667 C 53.079 201.079,106.828 203.556,139.515 176.051 C 152.597 165.044,158.575 162.624,155.980 169.385 C 151.784 180.321,362.616 186.252,389.455 175.953 C 405.003 169.987,405.003 50.013,389.455 44.047 C 374.157 38.176,159.982 39.066,160.097 45.000 C 160.150 47.750,164.598 62.639,169.980 78.088 C 179.455 105.286,177.482 143.316,166.234 150.267 C 163.277 152.095,163.622 143.948,167.002 132.163 C 178.457 92.222,143.938 26.957,111.155 26.576 C 106.853 26.526,97.333 25.229,90.000 23.693 C 82.667 22.158,67.165 23.720,55.553 27.165 M119.348 75.972 C 129.851 87.153,133.500 97.653,131.509 110.972 L 128.664 130.000 127.666 109.367 C 126.472 84.721,110.642 68.839,83.333 64.890 L 63.333 61.998 83.838 60.999 C 97.745 60.321,109.171 65.139,119.348 75.972 M321.868 91.538 C 306.395 92.936,279.395 92.953,261.868 91.575 C 244.341 90.197,257.000 89.053,290.000 89.033 C 323.000 89.013,337.341 90.140,321.868 91.538 M238.411 131.247 C 232.037 132.916,220.037 132.976,211.744 131.382 C 203.452 129.787,208.667 128.422,223.333 128.348 C 238.000 128.274,244.785 129.579,238.411 131.247 M331.667 131.442 C 321.583 132.969,305.083 132.969,295.000 131.442 C 284.917 129.914,293.167 128.664,313.333 128.664 C 333.500 128.664,341.750 129.914,331.667 131.442 M260.512 223.926 C 244.566 237.343,240.000 238.827,240.000 230.593 C 240.000 215.727,19.497 214.541,7.214 229.341 C 2.252 235.320,0.158 259.912,1.397 297.674 L 3.333 356.667 125.000 358.484 C 191.917 359.483,246.667 358.628,246.667 356.583 C 246.667 354.537,241.667 345.233,235.556 335.907 C 222.838 316.498,220.656 263.344,232.106 251.894 C 237.877 246.123,238.174 249.789,233.310 266.749 C 208.067 354.764,323.846 416.147,382.847 346.029 C 448.767 267.688,338.866 157.995,260.512 223.926 M138.333 271.567 C 120.917 272.940,92.417 272.940,75.000 271.567 C 57.583 270.194,71.833 269.070,106.667 269.070 C 141.500 269.070,155.750 270.194,138.333 271.567 M284.924 321.667 C 290.686 328.083,304.685 333.783,316.033 334.332 L 336.667 335.331 317.639 338.175 C 291.369 342.102,266.316 318.204,267.666 290.505 L 268.664 270.000 271.557 290.000 C 273.147 301.000,279.163 315.250,284.924 321.667 M178.333 311.523 C 164.583 312.961,142.083 312.961,128.333 311.523 C 114.583 310.085,125.833 308.908,153.333 308.908 C 180.833 308.908,192.083 310.085,178.333 311.523 " stroke="none" fill="#9f9fa1" fill-rule="evenodd"></path></g></svg>