<svg id="svg" xmlns="http://www.w3.org/2000/svg" xmlns:xlink="http://www.w3.org/1999/xlink" viewBox="0, 0, 400,400"><g id="svgg"><path id="path0" d="M130.000 52.666 C 6.924 109.771,9.950 297.595,134.786 349.662 C 243.759 395.113,359.707 317.962,359.707 200.000 C 359.707 79.832,238.712 2.226,130.000 52.666 M258.599 85.957 C 377.777 146.784,333.986 326.667,200.000 326.667 C 64.466 326.667,22.709 148.169,143.333 84.435 C 171.250 69.684,228.189 70.437,258.599 85.957 M120.000 193.333 C 120.000 211.111,122.222 213.333,140.000 213.333 C 157.778 213.333,160.000 211.111,160.000 193.333 C 160.000 175.556,157.778 173.333,140.000 173.333 C 122.222 173.333,120.000 175.556,120.000 193.333 M240.000 193.333 C 240.000 211.111,242.222 213.333,260.000 213.333 C 277.778 213.333,280.000 211.111,280.000 193.333 C 280.000 175.556,277.778 173.333,260.000 173.333 C 242.222 173.333,240.000 175.556,240.000 193.333 M146.667 267.660 C 146.667 283.683,166.715 293.333,200.000 293.333 C 233.285 293.333,253.333 283.683,253.333 267.660 C 253.333 257.266,246.698 255.789,200.000 255.789 C 153.302 255.789,146.667 257.266,146.667 267.660 " stroke="none" fill="#9f9fa1" fill-rule="evenodd"></path></g></svg>