<svg id="svg" xmlns="http://www.w3.org/2000/svg" xmlns:xlink="http://www.w3.org/1999/xlink" viewBox="0, 0, 400,400"><g id="svgg"><path id="path0" d="M45.000 7.201 C 26.060 18.232,27.221 382.926,46.228 393.099 C 69.037 405.306,343.575 402.139,356.190 389.524 C 365.023 380.691,366.667 357.916,366.667 244.377 L 366.667 109.706 311.527 54.853 L 256.388 -0.000 156.527 0.203 C 101.173 0.315,51.467 3.434,45.000 7.201 M248.053 65.000 L 250.000 116.667 301.667 118.614 L 353.333 120.561 353.333 196.947 L 353.333 273.333 200.000 273.333 L 46.667 273.333 46.667 150.331 C 46.667 2.723,37.636 13.813,158.053 13.536 L 246.106 13.333 248.053 65.000 M306.207 105.421 C 264.101 108.590,260.000 105.041,260.000 65.437 L 260.000 30.455 296.970 66.894 L 333.939 103.333 306.207 105.421 M162.991 109.986 C 94.742 144.867,110.480 250.219,185.764 262.436 C 209.943 266.360,253.333 252.171,253.333 240.340 C 253.333 231.610,244.724 231.276,236.320 239.680 C 213.450 262.550,154.988 242.850,140.268 207.312 C 114.765 145.744,193.469 91.038,242.360 136.348 C 276.328 167.829,253.029 178.400,207.469 152.179 C 170.685 131.009,160.000 138.022,160.000 183.333 C 160.000 211.475,162.623 221.425,170.875 224.592 C 183.935 229.603,240.000 200.443,240.000 188.639 C 240.000 182.906,246.403 181.614,260.675 184.468 C 274.784 187.290,283.220 185.649,287.239 179.302 C 295.771 165.828,294.658 145.114,285.565 148.145 C 281.293 149.569,268.541 140.634,257.228 128.289 C 232.384 101.179,194.586 93.838,162.991 109.986 M206.201 172.076 L 226.058 184.151 207.000 195.409 C 179.421 211.700,173.333 209.517,173.333 183.333 C 173.333 156.779,178.269 155.089,206.201 172.076 M353.333 329.765 C 353.333 387.215,354.810 386.667,200.000 386.667 C 45.190 386.667,46.667 387.215,46.667 329.765 L 46.667 286.667 200.000 286.667 L 353.333 286.667 353.333 329.765 M134.800 301.667 C 121.177 318.282,122.439 354.820,137.143 369.524 C 156.240 388.621,193.333 375.418,193.333 349.524 C 193.333 343.810,186.667 340.000,176.667 340.000 C 159.232 340.000,153.993 349.798,168.333 355.585 C 172.917 357.434,169.974 359.184,161.794 359.474 C 142.560 360.154,133.418 330.392,148.291 315.518 C 156.672 307.138,160.580 306.916,172.186 314.164 C 188.949 324.632,198.535 317.634,186.800 303.494 C 176.621 291.229,144.290 290.093,134.800 301.667 M200.000 336.667 C 200.000 361.111,202.906 380.000,206.667 380.000 C 210.427 380.000,213.333 361.111,213.333 336.667 C 213.333 312.222,210.427 293.333,206.667 293.333 C 202.906 293.333,200.000 312.222,200.000 336.667 M226.667 337.222 C 226.667 380.013,240.109 397.464,245.410 361.554 C 246.579 353.635,253.250 346.579,260.674 345.410 C 279.092 342.510,279.775 330.441,261.667 327.870 C 240.610 324.879,242.380 306.667,263.727 306.667 C 273.403 306.667,279.003 303.781,276.667 300.000 C 274.401 296.333,262.223 293.333,249.607 293.333 L 226.667 293.333 226.667 337.222 " stroke="none" fill="#9f9fa1" fill-rule="evenodd"></path></g></svg>