<svg id="svg" xmlns="http://www.w3.org/2000/svg" xmlns:xlink="http://www.w3.org/1999/xlink" viewBox="0, 0, 400,400"><g id="svgg"><path id="path0" d="M140.048 23.953 C 60.730 58.350,34.238 151.849,78.552 240.987 C 97.792 279.687,188.389 393.333,200.000 393.333 C 211.611 393.333,302.208 279.687,321.448 240.987 C 389.494 104.111,273.960 -34.119,140.048 23.953 M251.668 47.474 C 349.573 94.869,335.305 227.705,220.647 336.277 L 199.937 355.888 176.132 332.944 C 147.131 304.992,98.024 231.607,87.621 200.672 C 51.690 93.828,152.654 -0.458,251.668 47.474 M175.713 93.025 C 135.708 109.876,126.558 174.250,159.487 207.179 C 185.687 233.380,214.313 233.380,240.513 207.179 C 290.992 156.701,239.577 66.125,175.713 93.025 M222.857 123.810 C 234.811 135.764,236.635 168.042,226.432 187.105 C 217.122 204.501,182.878 204.501,173.568 187.105 C 149.546 142.220,189.702 90.654,222.857 123.810 " stroke="none" fill="#9f9fa1" fill-rule="evenodd"></path></g></svg>