<svg id="svg" xmlns="http://www.w3.org/2000/svg" xmlns:xlink="http://www.w3.org/1999/xlink" viewBox="0, 0, 400,400"><g id="svgg"><path id="path0" d="M125.323 1.967 C 6.592 18.836,-42.383 165.083,42.293 249.905 C 128.019 335.778,275.396 286.157,290.989 166.171 C 303.499 69.915,221.202 -11.656,125.323 1.967 M155.078 34.410 C 247.976 43.215,291.760 151.530,230.661 221.389 C 185.929 272.534,103.798 271.938,60.323 220.154 C -1.277 146.781,47.597 38.059,144.141 33.701 C 145.430 33.643,150.352 33.962,155.078 34.410 M91.016 87.447 C 90.156 87.803,87.676 89.982,85.504 92.289 C 57.968 121.542,57.736 170.931,84.995 200.798 C 96.400 213.295,107.018 203.731,96.148 190.753 C 73.690 163.939,73.956 128.212,96.809 102.103 C 103.790 94.128,99.724 83.842,91.016 87.447 M268.750 248.505 C 264.337 254.109,254.187 264.328,247.266 270.137 L 243.359 273.416 258.317 288.466 C 273.257 303.497,273.276 303.520,273.615 307.422 C 274.441 316.938,274.949 317.554,315.083 357.636 C 358.028 400.527,355.783 398.828,369.531 398.828 C 387.938 398.828,399.609 387.156,399.609 368.750 C 399.609 354.339,400.834 355.975,358.357 313.633 C 318.903 274.304,319.091 274.458,308.157 272.627 L 302.734 271.719 288.274 257.344 C 280.320 249.438,273.641 242.987,273.430 243.009 C 273.219 243.031,271.113 245.504,268.750 248.505 " stroke="none" fill="#9f9fa1" fill-rule="evenodd"></path></g></svg>