<svg id="svg" xmlns="http://www.w3.org/2000/svg" xmlns:xlink="http://www.w3.org/1999/xlink" viewBox="0, 0, 400,400"><g id="svgg"><path id="path0" d="M25.000 33.867 C 6.115 44.867,7.265 356.283,26.228 366.432 C 43.580 375.718,356.420 375.718,373.772 366.432 C 389.576 357.974,394.079 83.413,378.667 68.000 C 373.086 62.419,337.147 60.000,259.829 60.000 C 150.221 60.000,148.817 59.815,133.333 43.333 C 116.289 25.191,49.862 19.386,25.000 33.867 M119.918 66.513 C 126.475 78.765,135.258 79.822,244.603 81.513 C 331.455 82.857,362.960 85.514,365.006 91.667 C 367.174 98.186,331.367 100.000,200.556 100.000 L 33.333 100.000 33.333 76.667 L 33.333 53.333 73.099 53.333 C 105.887 53.333,114.102 55.646,119.918 66.513 M365.161 235.000 L 366.989 346.667 200.161 346.667 L 33.333 346.667 33.333 237.778 C 33.333 177.889,35.385 126.837,37.894 124.329 C 40.402 121.821,114.652 120.571,202.894 121.551 L 363.333 123.333 365.161 235.000 M273.879 169.343 C 263.040 182.403,270.425 204.845,287.328 210.210 C 305.598 216.009,321.087 201.362,318.670 180.571 C 316.304 160.211,287.458 152.981,273.879 169.343 M107.373 239.217 C 81.318 268.119,60.000 295.119,60.000 299.217 C 60.000 316.898,81.551 303.685,118.526 263.333 C 165.492 212.078,159.297 213.607,185.899 246.709 C 206.064 271.801,206.737 274.313,197.015 288.193 C 172.108 323.752,201.583 322.596,236.697 286.636 L 262.766 259.939 289.969 286.636 C 316.840 313.008,340.000 321.404,340.000 304.772 C 340.000 300.064,323.548 279.964,303.441 260.106 L 266.881 224.001 246.492 239.075 L 226.103 254.149 195.767 220.408 C 157.805 178.185,163.481 176.977,107.373 239.217 " stroke="none" fill="#9f9fa1" fill-rule="evenodd"></path></g></svg>