<svg id="svg" xmlns="http://www.w3.org/2000/svg" xmlns:xlink="http://www.w3.org/1999/xlink" viewBox="0, 0, 400,400"><g id="svgg"><path id="path0" d="M64.286 10.000 C 58.672 15.614,42.381 20.000,27.143 20.000 C 7.460 20.000,0.000 22.749,0.000 30.000 C 0.000 35.500,4.577 40.000,10.171 40.000 C 19.288 40.000,19.288 42.038,10.171 59.669 C -27.567 132.647,22.389 219.745,104.910 224.844 C 224.685 232.245,273.382 83.046,173.401 15.000 C 146.539 -3.282,80.590 -6.304,64.286 10.000 M286.667 13.333 C 286.667 25.185,282.222 26.667,246.667 26.667 C 224.667 26.667,206.667 29.067,206.667 32.000 C 206.667 45.116,225.156 53.333,254.667 53.333 C 282.222 53.333,286.667 55.185,286.667 66.667 C 286.667 86.140,332.976 86.140,338.068 66.667 C 344.728 41.199,373.333 49.310,373.333 76.667 L 373.333 100.000 303.333 100.000 C 245.556 100.000,233.333 101.746,233.333 110.000 C 233.333 118.254,245.556 120.000,303.333 120.000 L 373.333 120.000 373.333 243.333 L 373.333 366.667 206.667 366.667 L 40.000 366.667 40.000 287.380 C 40.000 222.405,38.161 207.388,29.813 204.184 C 20.926 200.774,19.862 211.955,21.479 291.804 L 23.333 383.333 206.667 383.333 L 390.000 383.333 390.000 206.667 L 390.000 30.000 365.683 27.972 C 348.220 26.515,340.410 22.287,337.974 12.972 C 332.964 -6.187,286.667 -5.860,286.667 13.333 M149.223 29.246 C 220.063 58.845,219.665 159.609,148.571 194.025 C 88.539 223.086,19.364 177.012,20.236 108.547 C 20.506 87.389,39.363 48.555,39.764 68.333 C 40.291 94.350,60.000 80.192,60.000 53.797 C 60.000 31.924,62.479 27.117,75.000 24.705 C 105.347 18.860,127.628 20.223,149.223 29.246 M320.000 40.000 C 320.000 51.000,317.000 60.000,313.333 60.000 C 309.667 60.000,306.667 51.000,306.667 40.000 C 306.667 29.000,309.667 20.000,313.333 20.000 C 317.000 20.000,320.000 29.000,320.000 40.000 M100.000 79.546 C 100.000 119.006,118.969 146.667,146.029 146.667 C 159.497 146.667,153.509 127.089,136.667 116.054 C 122.654 106.872,120.000 99.948,120.000 72.567 C 120.000 48.063,117.524 40.000,110.000 40.000 C 102.235 40.000,100.000 48.838,100.000 79.546 M226.667 160.000 C 226.667 168.889,231.111 173.333,240.000 173.333 C 249.778 173.333,253.333 177.778,253.333 190.000 C 253.333 205.000,250.667 206.667,226.667 206.667 L 200.000 206.667 200.000 233.333 C 200.000 258.519,198.889 260.000,180.000 260.000 C 162.939 260.000,160.000 257.469,160.000 242.778 C 160.000 221.893,144.344 224.179,141.203 245.522 C 138.296 265.281,106.667 266.329,106.667 246.667 C 106.667 239.259,102.222 233.333,96.667 233.333 C 88.611 233.333,86.667 243.704,86.667 286.667 L 86.667 340.000 210.000 340.000 L 333.333 340.000 333.333 243.333 L 333.333 146.667 280.000 146.667 C 231.111 146.667,226.667 147.778,226.667 160.000 M306.667 190.000 C 306.667 203.333,303.333 206.667,290.000 206.667 C 276.667 206.667,273.333 203.333,273.333 190.000 C 273.333 176.667,276.667 173.333,290.000 173.333 C 303.333 173.333,306.667 176.667,306.667 190.000 M253.333 243.333 C 253.333 256.667,250.000 260.000,236.667 260.000 C 223.333 260.000,220.000 256.667,220.000 243.333 C 220.000 230.000,223.333 226.667,236.667 226.667 C 250.000 226.667,253.333 230.000,253.333 243.333 M306.667 243.333 C 306.667 256.667,303.333 260.000,290.000 260.000 C 276.667 260.000,273.333 256.667,273.333 243.333 C 273.333 230.000,276.667 226.667,290.000 226.667 C 303.333 226.667,306.667 230.000,306.667 243.333 M140.000 300.000 C 140.000 316.889,137.407 320.000,123.333 320.000 C 109.259 320.000,106.667 316.889,106.667 300.000 C 106.667 283.111,109.259 280.000,123.333 280.000 C 137.407 280.000,140.000 283.111,140.000 300.000 M200.000 300.000 C 200.000 317.778,197.778 320.000,180.000 320.000 C 162.222 320.000,160.000 317.778,160.000 300.000 C 160.000 282.222,162.222 280.000,180.000 280.000 C 197.778 280.000,200.000 282.222,200.000 300.000 M253.333 300.000 C 253.333 316.889,250.741 320.000,236.667 320.000 C 222.593 320.000,220.000 316.889,220.000 300.000 C 220.000 283.111,222.593 280.000,236.667 280.000 C 250.741 280.000,253.333 283.111,253.333 300.000 M306.667 300.000 C 306.667 316.889,304.074 320.000,290.000 320.000 C 275.926 320.000,273.333 316.889,273.333 300.000 C 273.333 283.111,275.926 280.000,290.000 280.000 C 304.074 280.000,306.667 283.111,306.667 300.000 " stroke="none" fill="#9f9fa1" fill-rule="evenodd"></path></g></svg>